<svg xmlns="http://www.w3.org/2000/svg" xmlns:xlink="http://www.w3.org/1999/xlink" viewBox="0 0 396 120" data-background-color="#ffffff" preserveAspectRatio="xMidYMid meet" height="454" width="1500"><g id="tight-bounds" transform="matrix(1,0,0,1,0.2400000000000091,0.1410290466399431)"><svg viewBox="0 0 395.52 119.7179419067201" height="119.7179419067201" width="395.52"><g><svg viewBox="0 0 664.0568550864593 200.99999999999997" height="119.7179419067201" width="395.52"><g><rect width="5.5840896042426" height="200.99999999999997" x="250.53598433114922" y="0" fill="#0e5ddd" opacity="1" stroke-width="0" stroke="transparent" fill-opacity="1" class="rect-yte-0" data-fill-palette-color="primary" rx="1%" id="yte-0" data-palette-color="#0e5ddd"/></g><g transform="matrix(1,0,0,1,270.7381095485923,0.4999999999999858)"><svg viewBox="0 0 393.3187455378671 200" height="200" width="393.3187455378671"><g id="textblocktransform"><svg viewBox="0 0 393.3187455378671 200" height="200" width="393.3187455378671" id="textblock"><g><svg viewBox="0 0 393.3187455378671 200" height="200" width="393.3187455378671"><g transform="matrix(1,0,0,1,0,0)"><svg width="393.3187455378671" viewBox="2.6599999999999917 -38.13 250.80999999999997 123.1328560933373" height="200" data-palette-color="#0e5ddd"><svg/><svg/><svg/><g class="wordmark-text-0" data-fill-palette-color="primary" id="text-0"><path d="M4.88-1.83v0c-0.06-0.44-0.047-0.907 0.04-1.4 0.087-0.5 0.173-0.947 0.26-1.34v0c0.027-1.707 0.047-3.443 0.06-5.21 0.007-1.767 0-3.69-0.02-5.77-0.013-2.087-0.027-4.39-0.04-6.91-0.02-2.527-0.03-5.4-0.03-8.62v0l-0.29-3.3c0-0.68 0.033-1.24 0.1-1.68 0.06-0.44 0.193-0.79 0.4-1.05 0.2-0.26 0.483-0.44 0.85-0.54 0.367-0.093 0.843-0.14 1.43-0.14v0c0.813 0 1.62-0.013 2.42-0.04 0.793-0.027 1.6-0.057 2.42-0.09v0c0.827-0.027 1.643-0.07 2.45-0.13 0.807-0.053 1.64-0.08 2.5-0.08v0c0.573 0 1.287 0.013 2.14 0.04 0.853 0.033 1.747 0.153 2.68 0.36 0.94 0.2 1.877 0.513 2.81 0.94 0.933 0.42 1.773 1.02 2.52 1.8 0.74 0.787 1.34 1.777 1.8 2.97 0.467 1.2 0.7 2.67 0.7 4.41v0c0 1.493-0.31 2.867-0.93 4.12-0.62 1.253-1.41 2.347-2.37 3.28v0c0.407 0.16 0.797 0.347 1.17 0.56 0.38 0.207 0.72 0.42 1.02 0.64 0.3 0.22 0.56 0.433 0.78 0.64 0.22 0.2 0.387 0.367 0.5 0.5v0c0.7 0.86 1.273 1.833 1.72 2.92 0.447 1.08 0.67 2.15 0.67 3.21v0c0 1.82-0.19 3.387-0.57 4.7-0.387 1.307-0.93 2.413-1.63 3.32-0.7 0.9-1.543 1.627-2.53 2.18-0.993 0.553-2.107 0.98-3.34 1.28-1.227 0.307-2.56 0.507-4 0.6-1.44 0.1-2.95 0.15-4.53 0.15v0c-0.273 0-0.663-0.017-1.17-0.05-0.507-0.033-1.06-0.077-1.66-0.13-0.607-0.06-1.227-0.13-1.86-0.21-0.633-0.08-1.22-0.17-1.76-0.27v0c-0.407 0.18-0.96 0.27-1.66 0.27v0c-0.873 0-1.577-0.15-2.11-0.45-0.527-0.307-0.84-0.8-0.94-1.48zM10.62-22.09v0.31c0.6 0.08 1.21 0.15 1.83 0.21 0.62 0.06 1.173 0.09 1.66 0.09v0c1.94 0 3.577-0.073 4.91-0.22 1.333-0.147 2.417-0.437 3.25-0.87 0.827-0.433 1.423-1.033 1.79-1.8 0.367-0.76 0.55-1.76 0.55-3v0c0-1.027-0.14-1.897-0.42-2.61-0.273-0.713-0.707-1.297-1.3-1.75-0.593-0.447-1.35-0.77-2.27-0.97-0.92-0.207-2.017-0.31-3.29-0.31v0c-0.467 0-1.233 0.003-2.3 0.01-1.067 0.013-2.537 0.06-4.41 0.14v0 0.05c0 0.033 0.003 0.06 0.01 0.08 0.007 0.027 0.01 0.057 0.01 0.09v0c0.033 1.673 0.047 3.373 0.04 5.1-0.007 1.727-0.027 3.543-0.06 5.45zM10.62-5.1v0c0.393 0.067 0.793 0.13 1.2 0.19 0.407 0.067 0.873 0.123 1.4 0.17 0.527 0.053 1.14 0.097 1.84 0.13 0.7 0.027 1.53 0.04 2.49 0.04v0c1.107 0 2.237-0.063 3.39-0.19 1.147-0.133 2.187-0.42 3.12-0.86 0.933-0.433 1.697-1.07 2.29-1.91 0.6-0.84 0.9-1.96 0.9-3.36v0c0-1.153-0.227-2.12-0.68-2.9-0.447-0.787-1-1.42-1.66-1.9-0.653-0.48-1.363-0.82-2.13-1.02-0.767-0.207-1.467-0.31-2.1-0.31v0c-0.573 0-1.157 0.01-1.75 0.03-0.593 0.013-1.273 0.033-2.04 0.06-0.76 0.027-1.65 0.05-2.67 0.07-1.013 0.027-2.22 0.047-3.62 0.06v0c0 1.953 0 3.567 0 4.84 0 1.267 0.003 2.327 0.01 3.18 0.007 0.853 0.01 1.557 0.01 2.11 0 0.56 0 1.083 0 1.57zM41.26-2.17v0c0-0.573 0.007-1.143 0.02-1.71 0.02-0.573 0.037-1.2 0.05-1.88v0-18.82c0-0.46-0.047-0.92-0.14-1.38-0.1-0.467-0.15-0.953-0.15-1.46v0c0-0.86 0.31-1.517 0.93-1.97 0.62-0.46 1.457-0.69 2.51-0.69v0c0.46 0 0.86 0.077 1.2 0.23 0.34 0.16 0.623 0.36 0.85 0.6 0.233 0.247 0.407 0.523 0.52 0.83 0.113 0.313 0.17 0.63 0.17 0.95v0c0 0.28-0.02 0.563-0.06 0.85-0.047 0.28-0.093 0.56-0.14 0.84v0c2.493-0.62 4.613-1.183 6.36-1.69 1.753-0.5 3.127-0.913 4.12-1.24v0c0.207-0.373 0.503-0.697 0.89-0.97 0.38-0.267 0.88-0.4 1.5-0.4v0c0.893 0 1.603 0.233 2.13 0.7 0.533 0.46 0.8 1.04 0.8 1.74v0c0 0.28-0.017 0.567-0.05 0.86-0.033 0.293-0.05 0.587-0.05 0.88v0c-0.1 0.993-0.12 2-0.06 3.02 0.053 1.027 0.123 2.06 0.21 3.1v0c0.033 0.327 0.053 0.673 0.06 1.04 0.007 0.367 0.01 0.737 0.01 1.11v0c0 0.393-0.097 0.72-0.29 0.98-0.2 0.26-0.45 0.467-0.75 0.62-0.3 0.153-0.63 0.263-0.99 0.33-0.353 0.067-0.703 0.1-1.05 0.1v0c-0.487 0-0.893-0.087-1.22-0.26-0.327-0.167-0.59-0.387-0.79-0.66-0.207-0.267-0.353-0.567-0.44-0.9-0.087-0.333-0.13-0.663-0.13-0.99v0c0-0.747 0.007-1.507 0.02-2.28 0.013-0.773 0.03-1.623 0.05-2.55v0c-0.62 0.147-1.47 0.34-2.55 0.58-1.087 0.247-2.27 0.507-3.55 0.78v0c-0.733 0.18-1.46 0.35-2.18 0.51-0.713 0.153-1.437 0.31-2.17 0.47v0 15.94l0.73-0.22c0.327-0.113 0.637-0.213 0.93-0.3 0.293-0.093 0.627-0.153 1-0.18v0c0.307 0.027 0.613 0.1 0.92 0.22 0.3 0.113 0.567 0.273 0.8 0.48 0.24 0.213 0.433 0.48 0.58 0.8 0.147 0.313 0.22 0.673 0.22 1.08v0c0 0.38-0.063 0.74-0.19 1.08-0.12 0.34-0.287 0.643-0.5 0.91-0.213 0.273-0.46 0.493-0.74 0.66-0.287 0.173-0.6 0.267-0.94 0.28v0c-0.227 0.033-0.537 0.087-0.93 0.16-0.393 0.073-0.85 0.16-1.37 0.26v0c-0.827 0.16-1.497 0.273-2.01 0.34-0.513 0.067-0.94 0.1-1.28 0.1v0c-0.38 0-0.743-0.063-1.09-0.19-0.353-0.12-0.66-0.3-0.92-0.54-0.26-0.247-0.467-0.55-0.62-0.91-0.153-0.353-0.23-0.767-0.23-1.24zM75.32-11.01v0c0.307 1.22 0.767 2.24 1.38 3.06 0.607 0.827 1.293 1.49 2.06 1.99 0.767 0.507 1.577 0.87 2.43 1.09 0.853 0.22 1.687 0.33 2.5 0.33v0c1.273 0 2.403-0.11 3.39-0.33 0.993-0.22 1.847-0.49 2.56-0.81 0.707-0.313 1.28-0.643 1.72-0.99 0.44-0.34 0.75-0.64 0.93-0.9v0c0.16-0.24 0.34-0.47 0.54-0.69 0.207-0.22 0.427-0.417 0.66-0.59 0.24-0.173 0.477-0.307 0.71-0.4 0.24-0.1 0.463-0.15 0.67-0.15v0c0.813 0 1.447 0.24 1.9 0.72 0.447 0.48 0.67 1.127 0.67 1.94v0c0 0.313-0.117 0.703-0.35 1.17-0.227 0.473-0.647 0.997-1.26 1.57v0c-0.687 0.633-1.45 1.233-2.29 1.8-0.833 0.573-1.757 1.073-2.77 1.5-1.007 0.433-2.1 0.777-3.28 1.03-1.18 0.253-2.453 0.38-3.82 0.38v0c-1.613 0-3.087-0.217-4.42-0.65-1.333-0.433-2.53-1.02-3.59-1.76-1.06-0.74-1.98-1.597-2.76-2.57-0.78-0.98-1.43-2.023-1.95-3.13-0.52-1.107-0.91-2.247-1.17-3.42-0.267-1.167-0.4-2.303-0.4-3.41v0c0-2.413 0.393-4.59 1.18-6.53 0.78-1.947 1.853-3.613 3.22-5 1.367-1.38 2.987-2.447 4.86-3.2 1.873-0.747 3.9-1.12 6.08-1.12v0c1.56 0 3.023 0.233 4.39 0.7 1.367 0.46 2.583 1.11 3.65 1.95 1.067 0.84 1.963 1.84 2.69 3 0.72 1.167 1.227 2.45 1.52 3.85v0c0.327 0.273 0.567 0.637 0.72 1.09 0.153 0.447 0.23 0.89 0.23 1.33v0c0 0.727-0.247 1.323-0.74 1.79-0.493 0.467-1.117 0.787-1.87 0.96v0c-1.64 0.427-3.283 0.82-4.93 1.18-1.64 0.353-3.293 0.703-4.96 1.05-1.66 0.34-3.33 0.69-5.01 1.05-1.687 0.353-3.383 0.727-5.09 1.12zM74.9-15.53v0c2.767-0.647 5.567-1.257 8.4-1.83 2.833-0.567 5.713-1.2 8.64-1.9v0c-0.273-0.753-0.647-1.467-1.12-2.14-0.473-0.673-1.027-1.263-1.66-1.77-0.633-0.507-1.337-0.907-2.11-1.2-0.773-0.287-1.607-0.43-2.5-0.43v0c-1.387 0-2.647 0.223-3.78 0.67-1.127 0.447-2.107 1.073-2.94 1.88-0.827 0.807-1.493 1.783-2 2.93-0.507 1.147-0.817 2.41-0.93 3.79zM103.61-14.65v0c0-2.213 0.377-4.273 1.13-6.18 0.747-1.9 1.773-3.55 3.08-4.95 1.313-1.4 2.853-2.5 4.62-3.3 1.767-0.793 3.673-1.19 5.72-1.19v0c1.047 0 2.043 0.12 2.99 0.36 0.953 0.247 1.843 0.57 2.67 0.97 0.82 0.4 1.56 0.85 2.22 1.35 0.66 0.507 1.223 1.027 1.69 1.56v0c-0.013-0.227-0.02-0.47-0.02-0.73 0-0.26 0-0.487 0-0.68v0c0-0.407 0.057-0.787 0.17-1.14 0.113-0.347 0.293-0.65 0.54-0.91 0.24-0.26 0.55-0.467 0.93-0.62 0.373-0.16 0.827-0.24 1.36-0.24v0c0.46 0 0.873 0.087 1.24 0.26 0.367 0.173 0.68 0.383 0.94 0.63 0.26 0.253 0.463 0.523 0.61 0.81 0.147 0.287 0.22 0.543 0.22 0.77v0c0 0.553-0.03 1.11-0.09 1.67-0.06 0.56-0.103 1.127-0.13 1.7v0c0 1.787-0.013 3.37-0.04 4.75-0.027 1.373-0.057 2.637-0.09 3.79v0c-0.027 0.787-0.05 1.597-0.07 2.43-0.013 0.84-0.02 1.61-0.02 2.31v0c0 1.58 0 2.833 0 3.76 0 0.927 0.04 1.603 0.12 2.03v0c0.147-0.033 0.363-0.107 0.65-0.22 0.28-0.113 0.543-0.237 0.79-0.37v0c0.227-0.08 0.453-0.16 0.68-0.24 0.227-0.087 0.513-0.13 0.86-0.13v0c0.387 0 0.727 0.087 1.02 0.26 0.293 0.173 0.543 0.393 0.75 0.66 0.2 0.267 0.35 0.567 0.45 0.9 0.1 0.333 0.15 0.657 0.15 0.97v0c0 0.44-0.107 0.883-0.32 1.33-0.213 0.447-0.603 0.767-1.17 0.96v0c-0.493 0.18-0.99 0.367-1.49 0.56-0.507 0.2-1.017 0.38-1.53 0.54-0.513 0.16-1.027 0.3-1.54 0.42-0.513 0.113-1.037 0.17-1.57 0.17v0c-0.633 0-1.153-0.13-1.56-0.39-0.407-0.267-0.727-0.607-0.96-1.02-0.227-0.413-0.387-0.873-0.48-1.38-0.1-0.5-0.16-0.997-0.18-1.49v0c-0.5 0.64-1.11 1.237-1.83 1.79-0.713 0.553-1.503 1.04-2.37 1.46-0.86 0.427-1.783 0.76-2.77 1-0.98 0.247-1.993 0.37-3.04 0.37v0c-2.113 0-4.05-0.387-5.81-1.16-1.753-0.773-3.263-1.847-4.53-3.22-1.26-1.38-2.24-3.003-2.94-4.87-0.7-1.873-1.05-3.91-1.05-6.11zM109.23-14.65v0c0 1.32 0.2 2.59 0.6 3.81 0.393 1.22 0.97 2.3 1.73 3.24 0.76 0.933 1.693 1.677 2.8 2.23 1.107 0.553 2.36 0.83 3.76 0.83v0c1.38 0 2.633-0.27 3.76-0.81 1.12-0.533 2.1-1.233 2.94-2.1 0.833-0.86 1.52-1.823 2.06-2.89 0.54-1.067 0.907-2.137 1.1-3.21v0-2.15c-0.18-0.993-0.517-2.043-1.01-3.15-0.5-1.107-1.153-2.127-1.96-3.06-0.807-0.94-1.77-1.713-2.89-2.32-1.127-0.613-2.397-0.92-3.81-0.92v0c-1.333 0-2.553 0.273-3.66 0.82-1.107 0.547-2.063 1.297-2.87 2.25-0.807 0.953-1.433 2.063-1.88 3.33-0.447 1.267-0.67 2.633-0.67 4.1zM142.72-6.32v0c0-0.373 0.09-0.717 0.27-1.03 0.18-0.307 0.403-0.57 0.67-0.79 0.273-0.22 0.573-0.39 0.9-0.51 0.32-0.127 0.637-0.19 0.95-0.19v0c0.373 0 0.69 0.04 0.95 0.12 0.26 0.087 0.487 0.203 0.68 0.35 0.2 0.147 0.373 0.317 0.52 0.51 0.147 0.193 0.3 0.403 0.46 0.63v0c0.653 0.98 1.607 1.733 2.86 2.26 1.253 0.533 2.887 0.8 4.9 0.8v0c0.833 0 1.62-0.073 2.36-0.22 0.74-0.147 1.39-0.367 1.95-0.66 0.567-0.293 1.017-0.653 1.35-1.08 0.333-0.42 0.5-0.907 0.5-1.46v0c0-0.753-0.217-1.39-0.65-1.91-0.433-0.52-1.003-0.967-1.71-1.34-0.707-0.373-1.507-0.69-2.4-0.95-0.9-0.26-1.82-0.513-2.76-0.76v0c-0.867-0.213-1.74-0.443-2.62-0.69-0.873-0.253-1.727-0.547-2.56-0.88-0.827-0.333-1.603-0.733-2.33-1.2-0.727-0.467-1.357-1.017-1.89-1.65-0.54-0.633-0.967-1.37-1.28-2.21-0.32-0.833-0.48-1.797-0.48-2.89v0c0-1.467 0.347-2.707 1.04-3.72 0.687-1.02 1.58-1.847 2.68-2.48 1.1-0.633 2.327-1.093 3.68-1.38 1.347-0.287 2.673-0.43 3.98-0.43v0c0.747 0 1.43 0.04 2.05 0.12 0.613 0.087 1.19 0.193 1.73 0.32 0.54 0.133 1.053 0.293 1.54 0.48 0.487 0.187 0.973 0.377 1.46 0.57v0c0.067-0.247 0.17-0.493 0.31-0.74 0.14-0.253 0.307-0.483 0.5-0.69 0.193-0.2 0.42-0.367 0.68-0.5 0.26-0.127 0.553-0.19 0.88-0.19v0c0.8 0 1.42 0.153 1.86 0.46 0.44 0.307 0.66 0.853 0.66 1.64v0c0 0.613-0.027 1.257-0.08 1.93-0.047 0.667-0.07 1.397-0.07 2.19v0c0.08 0.2 0.137 0.417 0.17 0.65 0.033 0.233 0.05 0.44 0.05 0.62v0c0 0.393-0.067 0.723-0.2 0.99-0.127 0.267-0.303 0.487-0.53 0.66-0.227 0.173-0.493 0.3-0.8 0.38-0.3 0.08-0.63 0.12-0.99 0.12v0c-0.32 0-0.633-0.057-0.94-0.17-0.3-0.113-0.57-0.263-0.81-0.45-0.247-0.187-0.46-0.403-0.64-0.65-0.18-0.247-0.317-0.5-0.41-0.76v0c-0.26-0.207-0.59-0.447-0.99-0.72-0.4-0.267-0.873-0.513-1.42-0.74-0.547-0.227-1.17-0.417-1.87-0.57-0.7-0.16-1.47-0.24-2.31-0.24v0c-0.833 0-1.603 0.08-2.31 0.24-0.707 0.153-1.317 0.377-1.83 0.67-0.513 0.293-0.917 0.643-1.21 1.05-0.293 0.407-0.44 0.86-0.44 1.36v0c0 0.653 0.2 1.213 0.6 1.68 0.4 0.46 0.933 0.867 1.6 1.22 0.667 0.347 1.443 0.66 2.33 0.94 0.887 0.273 1.81 0.54 2.77 0.8v0c1.32 0.36 2.65 0.76 3.99 1.2 1.34 0.44 2.553 1.007 3.64 1.7 1.08 0.687 1.963 1.557 2.65 2.61 0.68 1.047 1.02 2.36 1.02 3.94v0c0 1.22-0.187 2.277-0.56 3.17-0.373 0.9-0.87 1.67-1.49 2.31-0.62 0.647-1.34 1.177-2.16 1.59-0.82 0.413-1.673 0.74-2.56 0.98-0.887 0.233-1.787 0.393-2.7 0.48-0.913 0.093-1.777 0.14-2.59 0.14v0c-1.14 0-2.237-0.107-3.29-0.32-1.06-0.213-2.057-0.497-2.99-0.85-0.94-0.36-1.797-0.777-2.57-1.25-0.773-0.473-1.437-0.97-1.99-1.49-0.553-0.52-0.983-1.05-1.29-1.59-0.313-0.533-0.47-1.043-0.47-1.53zM177.1-1.86l0.1-5.22-0.15-17.21-2.95 0.02c-0.373 0-0.7-0.077-0.98-0.23-0.273-0.153-0.507-0.363-0.7-0.63-0.187-0.273-0.327-0.58-0.42-0.92-0.1-0.34-0.15-0.697-0.15-1.07v0c0-0.64 0.077-1.127 0.23-1.46 0.153-0.333 0.377-0.577 0.67-0.73 0.293-0.153 0.653-0.243 1.08-0.27 0.42-0.02 0.907-0.03 1.46-0.03v0h1.74v-0.91c0-0.6-0.007-1.087-0.02-1.46-0.007-0.373-0.01-0.627-0.01-0.76v0c0-0.473-0.043-0.947-0.13-1.42-0.093-0.467-0.14-0.947-0.14-1.44v0c0-0.407 0.05-0.763 0.15-1.07 0.1-0.307 0.267-0.57 0.5-0.79 0.233-0.22 0.547-0.387 0.94-0.5 0.393-0.113 0.873-0.17 1.44-0.17v0c0.393 0 0.763 0.03 1.11 0.09 0.353 0.067 0.663 0.193 0.93 0.38 0.267 0.187 0.483 0.443 0.65 0.77 0.16 0.327 0.24 0.75 0.24 1.27v0c0 0.7-0.06 1.393-0.18 2.08-0.127 0.68-0.18 1.387-0.16 2.12v0 1.78c1.267-0.033 2.253-0.057 2.96-0.07 0.713-0.02 1.29-0.037 1.73-0.05v0c0.06 0 0.12-0.003 0.18-0.01 0.053-0.013 0.107-0.02 0.16-0.02v0c0.193-0.013 0.413-0.02 0.66-0.02 0.24 0 0.433 0 0.58 0v0c0.313 0 0.617 0.05 0.91 0.15 0.293 0.093 0.55 0.257 0.77 0.49 0.22 0.227 0.393 0.517 0.52 0.87 0.133 0.36 0.2 0.793 0.2 1.3v0c0 0.387-0.033 0.753-0.1 1.1-0.067 0.34-0.19 0.64-0.37 0.9-0.18 0.26-0.44 0.467-0.78 0.62-0.34 0.153-0.78 0.23-1.32 0.23v0c-0.5 0-1.007-0.027-1.52-0.08-0.513-0.06-1.04-0.097-1.58-0.11v0l-2.95 0.02 0.17 19.27c0.667-0.113 1.253-0.22 1.76-0.32 0.5-0.1 0.97-0.197 1.41-0.29 0.44-0.1 0.873-0.217 1.3-0.35 0.42-0.127 0.883-0.287 1.39-0.48v0c0.273-0.147 0.597-0.3 0.97-0.46 0.38-0.153 0.773-0.23 1.18-0.23v0c0.793 0 1.42 0.273 1.88 0.82 0.453 0.547 0.68 1.26 0.68 2.14v0c0 0.227-0.053 0.477-0.16 0.75-0.107 0.28-0.267 0.553-0.48 0.82-0.207 0.267-0.477 0.51-0.81 0.73-0.333 0.22-0.73 0.38-1.19 0.48v0c-0.487 0.1-1.047 0.223-1.68 0.37-0.633 0.147-1.3 0.3-2 0.46-0.7 0.16-1.4 0.323-2.1 0.49-0.7 0.16-1.36 0.303-1.98 0.43-0.62 0.12-1.167 0.22-1.64 0.3-0.467 0.08-0.823 0.113-1.07 0.1v0c-0.293 0-0.617-0.037-0.97-0.11-0.347-0.073-0.667-0.203-0.96-0.39-0.293-0.187-0.533-0.447-0.72-0.78-0.187-0.333-0.28-0.763-0.28-1.29z" fill="#0e5ddd" fill-rule="nonzero" stroke="none" stroke-width="1" stroke-linecap="butt" stroke-linejoin="miter" stroke-miterlimit="10" stroke-dasharray="" stroke-dashoffset="0" font-family="none" font-weight="none" font-size="none" text-anchor="none" style="mix-blend-mode: normal" data-fill-palette-color="primary" opacity="1"/><path transform="translate(0,42.14)" d="M2.66-18.46v0c0-2.34 0.257-4.46 0.77-6.36 0.513-1.893 1.217-3.58 2.11-5.06 0.893-1.48 1.943-2.76 3.15-3.84 1.207-1.073 2.51-1.96 3.91-2.66 1.4-0.7 2.86-1.217 4.38-1.55 1.52-0.333 3.037-0.5 4.55-0.5v0c1.387 0 2.747 0.127 4.08 0.38 1.333 0.253 2.653 0.607 3.96 1.06v0c0.387 0.147 0.78 0.29 1.18 0.43 0.4 0.14 0.757 0.313 1.07 0.52 0.32 0.213 0.577 0.483 0.77 0.81 0.2 0.327 0.3 0.743 0.3 1.25v0c0 0.58-0.097 1.063-0.29 1.45-0.187 0.38-0.427 0.683-0.72 0.91-0.287 0.233-0.607 0.397-0.96 0.49-0.347 0.1-0.683 0.15-1.01 0.15v0c-0.227 0-0.473-0.037-0.74-0.11-0.26-0.073-0.527-0.167-0.8-0.28-0.28-0.113-0.55-0.247-0.81-0.4-0.26-0.16-0.493-0.313-0.7-0.46v0c-0.587-0.24-1.137-0.423-1.65-0.55-0.513-0.12-1.007-0.207-1.48-0.26-0.473-0.06-0.937-0.093-1.39-0.1-0.453-0.007-0.91-0.01-1.37-0.01v0c-1.027 0-2.05 0.117-3.07 0.35-1.027 0.233-2.017 0.6-2.97 1.1-0.953 0.493-1.843 1.117-2.67 1.87-0.833 0.747-1.553 1.637-2.16 2.67-0.613 1.033-1.097 2.21-1.45 3.53-0.347 1.313-0.52 2.787-0.52 4.42v0c0 2.7 0.387 4.98 1.16 6.84 0.773 1.867 1.783 3.377 3.03 4.53 1.24 1.16 2.643 1.997 4.21 2.51 1.56 0.507 3.137 0.76 4.73 0.76v0c0.733 0 1.457-0.043 2.17-0.13 0.707-0.087 1.363-0.2 1.97-0.34 0.613-0.14 1.157-0.297 1.63-0.47 0.467-0.167 0.823-0.34 1.07-0.52v0c0.487-0.427 0.917-0.747 1.29-0.96 0.38-0.22 0.813-0.33 1.3-0.33v0c0.373 0 0.727 0.04 1.06 0.12 0.333 0.08 0.623 0.223 0.87 0.43 0.24 0.2 0.433 0.463 0.58 0.79 0.147 0.327 0.22 0.733 0.22 1.22v0c0 0.68-0.23 1.303-0.69 1.87-0.467 0.56-1.213 1.083-2.24 1.57v0-0.02c-0.34 0.193-0.84 0.413-1.5 0.66-0.66 0.24-1.4 0.463-2.22 0.67-0.82 0.2-1.687 0.37-2.6 0.51-0.913 0.14-1.81 0.21-2.69 0.21v0c-2 0-3.85-0.24-5.55-0.72-1.7-0.48-3.247-1.147-4.64-2-1.393-0.86-2.627-1.883-3.7-3.07-1.073-1.187-1.977-2.487-2.71-3.9-0.733-1.42-1.287-2.93-1.66-4.53-0.373-1.607-0.56-3.257-0.56-4.95zM39.28-14.65v0c0-2.213 0.377-4.273 1.13-6.18 0.747-1.9 1.773-3.55 3.08-4.95 1.313-1.4 2.853-2.5 4.62-3.3 1.767-0.793 3.673-1.19 5.72-1.19v0c1.047 0 2.043 0.12 2.99 0.36 0.953 0.247 1.84 0.57 2.66 0.97 0.827 0.4 1.57 0.85 2.23 1.35 0.66 0.507 1.223 1.027 1.69 1.56v0c-0.013-0.227-0.02-0.47-0.02-0.73 0-0.26 0-0.487 0-0.68v0c0-0.407 0.057-0.787 0.17-1.14 0.113-0.347 0.293-0.65 0.54-0.91 0.24-0.26 0.547-0.467 0.92-0.62 0.38-0.16 0.837-0.24 1.37-0.24v0c0.46 0 0.87 0.087 1.23 0.26 0.367 0.173 0.68 0.383 0.94 0.63 0.267 0.253 0.473 0.523 0.62 0.81 0.14 0.287 0.21 0.543 0.21 0.77v0c0 0.553-0.027 1.11-0.08 1.67-0.06 0.56-0.103 1.127-0.13 1.7v0c0 1.787-0.013 3.37-0.04 4.75-0.027 1.373-0.057 2.637-0.09 3.79v0c-0.033 0.787-0.057 1.597-0.07 2.43-0.013 0.84-0.02 1.61-0.02 2.31v0c0 1.58 0 2.833 0 3.76 0 0.927 0.04 1.603 0.12 2.03v0c0.147-0.033 0.36-0.107 0.64-0.22 0.287-0.113 0.553-0.237 0.8-0.37v0c0.227-0.08 0.453-0.16 0.68-0.24 0.227-0.087 0.513-0.13 0.86-0.13v0c0.387 0 0.727 0.087 1.02 0.26 0.293 0.173 0.543 0.393 0.75 0.66 0.2 0.267 0.35 0.567 0.45 0.9 0.093 0.333 0.14 0.657 0.14 0.97v0c0 0.44-0.103 0.883-0.31 1.33-0.213 0.447-0.607 0.767-1.18 0.96v0c-0.487 0.18-0.98 0.367-1.48 0.56-0.507 0.2-1.017 0.38-1.53 0.54-0.513 0.16-1.027 0.3-1.54 0.42-0.513 0.113-1.037 0.17-1.57 0.17v0c-0.64 0-1.163-0.13-1.57-0.39-0.407-0.267-0.723-0.607-0.95-1.02-0.227-0.413-0.39-0.873-0.49-1.38-0.093-0.5-0.15-0.997-0.17-1.49v0c-0.5 0.64-1.11 1.237-1.83 1.79-0.713 0.553-1.503 1.04-2.37 1.46-0.86 0.427-1.783 0.76-2.77 1-0.98 0.247-1.993 0.37-3.04 0.37v0c-2.113 0-4.05-0.387-5.81-1.16-1.753-0.773-3.263-1.847-4.53-3.22-1.26-1.38-2.24-3.003-2.94-4.87-0.7-1.873-1.05-3.91-1.05-6.11zM44.9-14.65v0c0 1.32 0.2 2.59 0.6 3.81 0.393 1.22 0.97 2.3 1.73 3.24 0.753 0.933 1.683 1.677 2.79 2.23 1.107 0.553 2.36 0.83 3.76 0.83v0c1.387 0 2.64-0.27 3.76-0.81 1.127-0.533 2.11-1.233 2.95-2.1 0.833-0.86 1.52-1.823 2.06-2.89 0.533-1.067 0.9-2.137 1.1-3.21v0-2.15c-0.18-0.993-0.52-2.043-1.02-3.15-0.493-1.107-1.143-2.127-1.95-3.06-0.807-0.94-1.77-1.713-2.89-2.32-1.127-0.613-2.397-0.92-3.81-0.92v0c-1.333 0-2.553 0.273-3.66 0.82-1.107 0.547-2.063 1.297-2.87 2.25-0.807 0.953-1.433 2.063-1.88 3.33-0.447 1.267-0.67 2.633-0.67 4.1zM82.32-1.81v0c0-0.293 0.013-0.593 0.04-0.9 0.027-0.307 0.057-0.607 0.09-0.9v0c0.047-0.44 0.093-0.92 0.14-1.44 0.053-0.52 0.08-1.107 0.08-1.76v0c0-1.273-0.007-2.473-0.02-3.6-0.007-1.133-0.027-2.303-0.06-3.51v0c0-0.027 0-0.077 0-0.15 0-0.073-0.003-0.227-0.01-0.46-0.007-0.227-0.013-0.56-0.02-1-0.013-0.44-0.027-1.057-0.04-1.85-0.013-0.8-0.033-1.797-0.06-2.99-0.027-1.2-0.057-2.663-0.09-4.39v0c-0.207 0.033-0.453 0.063-0.74 0.09-0.287 0.027-0.623 0.04-1.01 0.04v0c-0.293 0-0.593-0.05-0.9-0.15-0.3-0.1-0.577-0.25-0.83-0.45-0.247-0.207-0.45-0.477-0.61-0.81-0.153-0.333-0.23-0.743-0.23-1.23v0c0-0.88 0.223-1.543 0.67-1.99 0.447-0.447 0.997-0.67 1.65-0.67v0c0.26 0 0.513 0.033 0.76 0.1 0.24 0.06 0.5 0.09 0.78 0.09v0c0.327 0 0.66-0.007 1-0.02 0.34-0.02 0.673-0.043 1-0.07v0c0.36-0.033 0.713-0.06 1.06-0.08 0.353-0.013 0.667-0.02 0.94-0.02v0c0.667 0 1.22 0.22 1.66 0.66 0.44 0.44 0.66 1.057 0.66 1.85v0c0 0.2-0.003 0.43-0.01 0.69-0.007 0.26-0.027 0.51-0.06 0.75v0c0.553-0.533 1.18-1.043 1.88-1.53 0.7-0.493 1.46-0.93 2.28-1.31 0.82-0.38 1.703-0.687 2.65-0.92 0.947-0.227 1.947-0.34 3-0.34v0c2.067 0 3.88 0.34 5.44 1.02 1.553 0.673 2.853 1.647 3.9 2.92 1.053 1.28 1.843 2.847 2.37 4.7 0.527 1.86 0.79 3.97 0.79 6.33v0c0 0.713-0.047 1.46-0.14 2.24-0.1 0.787-0.237 1.57-0.41 2.35-0.167 0.78-0.37 1.557-0.61 2.33-0.233 0.773-0.497 1.5-0.79 2.18v0c0.373-0.113 0.73-0.21 1.07-0.29 0.347-0.08 0.633-0.137 0.86-0.17v0c1.82-0.18 2.73 0.65 2.73 2.49v0c0 0.227-0.023 0.477-0.07 0.75-0.047 0.267-0.143 0.527-0.29 0.78-0.147 0.247-0.35 0.48-0.61 0.7-0.26 0.22-0.593 0.403-1 0.55v0l-2.64 0.61c-0.813 0.247-1.47 0.457-1.97 0.63-0.493 0.167-0.907 0.303-1.24 0.41-0.333 0.107-0.613 0.18-0.84 0.22-0.233 0.04-0.487 0.053-0.76 0.04v0c-0.393 0-0.737-0.093-1.03-0.28-0.293-0.187-0.537-0.423-0.73-0.71-0.193-0.287-0.34-0.6-0.44-0.94-0.093-0.34-0.14-0.673-0.14-1v0c0-0.52 0.073-1.05 0.22-1.59 0.147-0.533 0.407-1.02 0.78-1.46v0c0.453-0.587 0.84-1.247 1.16-1.98 0.313-0.733 0.57-1.523 0.77-2.37 0.193-0.847 0.333-1.733 0.42-2.66 0.093-0.927 0.14-1.87 0.14-2.83v0c0-1.107-0.12-2.233-0.36-3.38-0.233-1.147-0.63-2.19-1.19-3.13-0.567-0.933-1.307-1.697-2.22-2.29-0.92-0.593-2.073-0.89-3.46-0.89v0c-0.96 0-1.9 0.15-2.82 0.45-0.92 0.3-1.8 0.697-2.64 1.19-0.833 0.5-1.617 1.067-2.35 1.7-0.733 0.633-1.377 1.283-1.93 1.95v0c-0.013 0.733-0.027 1.47-0.04 2.21-0.007 0.74-0.01 1.487-0.01 2.24v0c-0.033 1.267-0.057 2.527-0.07 3.78-0.02 1.253-0.03 2.523-0.03 3.81v0c0 0.373 0 0.75 0 1.13 0 0.387 0.017 0.79 0.05 1.21v0l0.66-0.19c0.18-0.053 0.357-0.1 0.53-0.14 0.167-0.04 0.317-0.06 0.45-0.06v0c0.88 0 1.547 0.217 2 0.65 0.453 0.433 0.68 1.063 0.68 1.89v0c0 0.62-0.12 1.113-0.36 1.48-0.247 0.367-0.557 0.65-0.93 0.85-0.373 0.207-0.783 0.35-1.23 0.43-0.453 0.08-0.89 0.147-1.31 0.2v0c-0.227 0.027-0.447 0.053-0.66 0.08-0.213 0.027-0.393 0.063-0.54 0.11v0c-0.52 0.147-0.967 0.273-1.34 0.38-0.373 0.107-0.7 0.16-0.98 0.16v0c-0.96 0-1.613-0.22-1.96-0.66-0.353-0.44-0.53-1.06-0.53-1.86zM117.8-14.75v0c0-1.313 0.133-2.607 0.4-3.88 0.267-1.267 0.683-2.47 1.25-3.61 0.56-1.14 1.267-2.187 2.12-3.14 0.853-0.953 1.87-1.78 3.05-2.48 1.18-0.7 2.523-1.243 4.03-1.63 1.507-0.393 3.197-0.59 5.07-0.59v0c1.167 0 2.257 0.13 3.27 0.39 1.007 0.26 1.853 0.61 2.54 1.05v0c0.08-0.487 0.22-0.883 0.42-1.19 0.207-0.313 0.443-0.553 0.71-0.72 0.267-0.173 0.557-0.293 0.87-0.36 0.307-0.067 0.607-0.1 0.9-0.1v0c0.78 0 1.39 0.213 1.83 0.64 0.44 0.42 0.66 0.973 0.66 1.66v0c0 0.36-0.023 0.723-0.07 1.09-0.047 0.36-0.07 0.753-0.07 1.18v0c0 0.747 0.08 1.48 0.24 2.2 0.16 0.713 0.24 1.437 0.24 2.17v0c0 0.78-0.203 1.443-0.61 1.99-0.407 0.547-1.033 0.82-1.88 0.82v0c-0.44 0-0.8-0.053-1.08-0.16-0.287-0.107-0.533-0.253-0.74-0.44-0.2-0.187-0.373-0.407-0.52-0.66-0.147-0.253-0.293-0.527-0.44-0.82v0c-0.193-0.387-0.427-0.79-0.7-1.21-0.267-0.413-0.653-0.787-1.16-1.12-0.5-0.333-1.167-0.607-2-0.82-0.827-0.207-1.9-0.31-3.22-0.31v0c-1.547 0-2.9 0.287-4.06 0.86-1.167 0.58-2.137 1.35-2.91 2.31-0.773 0.96-1.357 2.067-1.75 3.32-0.387 1.253-0.58 2.557-0.58 3.91v0c0 1.04 0.18 2.137 0.54 3.29 0.353 1.153 0.917 2.22 1.69 3.2 0.773 0.973 1.76 1.78 2.96 2.42 1.193 0.633 2.62 0.95 4.28 0.95v0c0.62 0 1.27-0.073 1.95-0.22 0.687-0.147 1.363-0.367 2.03-0.66 0.667-0.293 1.3-0.657 1.9-1.09 0.607-0.427 1.13-0.927 1.57-1.5v0c0.273-0.34 0.643-0.657 1.11-0.95 0.46-0.293 0.937-0.423 1.43-0.39v0c0.487 0.033 0.893 0.133 1.22 0.3 0.327 0.173 0.587 0.387 0.78 0.64 0.193 0.253 0.323 0.53 0.39 0.83 0.067 0.3 0.09 0.59 0.07 0.87v0c-0.047 0.7-0.24 1.337-0.58 1.91-0.347 0.58-0.723 1.097-1.13 1.55v0c-0.747 0.753-1.567 1.38-2.46 1.88-0.9 0.507-1.83 0.913-2.79 1.22-0.96 0.313-1.927 0.533-2.9 0.66-0.98 0.133-1.923 0.2-2.83 0.2v0c-2.2 0-4.223-0.41-6.07-1.23-1.847-0.827-3.433-1.94-4.76-3.34-1.327-1.4-2.36-3.04-3.1-4.92-0.74-1.88-1.11-3.87-1.11-5.97zM157.54-11.01v0c0.313 1.22 0.773 2.24 1.38 3.06 0.613 0.827 1.303 1.49 2.07 1.99 0.76 0.507 1.57 0.87 2.43 1.09 0.853 0.22 1.687 0.33 2.5 0.33v0c1.267 0 2.397-0.11 3.39-0.33 0.993-0.22 1.843-0.49 2.55-0.81 0.707-0.313 1.28-0.643 1.72-0.99 0.44-0.34 0.75-0.64 0.93-0.9v0c0.167-0.24 0.35-0.47 0.55-0.69 0.207-0.22 0.427-0.417 0.66-0.59 0.233-0.173 0.47-0.307 0.71-0.4 0.233-0.1 0.457-0.15 0.67-0.15v0c0.813 0 1.443 0.24 1.89 0.72 0.447 0.48 0.67 1.127 0.67 1.94v0c0 0.313-0.113 0.703-0.34 1.17-0.227 0.473-0.65 0.997-1.27 1.57v0c-0.68 0.633-1.44 1.233-2.28 1.8-0.84 0.573-1.763 1.073-2.77 1.5-1.013 0.433-2.11 0.777-3.29 1.03-1.18 0.253-2.453 0.38-3.82 0.38v0c-1.607 0-3.08-0.217-4.42-0.65-1.333-0.433-2.527-1.02-3.58-1.76-1.06-0.74-1.98-1.597-2.76-2.57-0.78-0.98-1.433-2.023-1.96-3.13-0.52-1.107-0.91-2.247-1.17-3.42-0.26-1.167-0.39-2.303-0.39-3.41v0c0-2.413 0.39-4.59 1.17-6.53 0.787-1.947 1.863-3.613 3.23-5 1.367-1.38 2.983-2.447 4.85-3.2 1.873-0.747 3.9-1.12 6.08-1.12v0c1.567 0 3.033 0.233 4.4 0.7 1.367 0.46 2.583 1.11 3.65 1.95 1.067 0.84 1.96 1.84 2.68 3 0.727 1.167 1.237 2.45 1.53 3.85v0c0.327 0.273 0.567 0.637 0.72 1.09 0.153 0.447 0.23 0.89 0.23 1.33v0c0 0.727-0.247 1.323-0.74 1.79-0.5 0.467-1.123 0.787-1.87 0.96v0c-1.647 0.427-3.29 0.82-4.93 1.18-1.647 0.353-3.3 0.703-4.96 1.05-1.66 0.34-3.333 0.69-5.02 1.05-1.68 0.353-3.377 0.727-5.09 1.12zM157.13-15.53v0c2.767-0.647 5.567-1.257 8.4-1.83 2.833-0.567 5.713-1.2 8.64-1.9v0c-0.28-0.753-0.653-1.467-1.12-2.14-0.473-0.673-1.027-1.263-1.66-1.77-0.64-0.507-1.347-0.907-2.12-1.2-0.767-0.287-1.6-0.43-2.5-0.43v0c-1.38 0-2.637 0.223-3.77 0.67-1.133 0.447-2.113 1.073-2.94 1.88-0.833 0.807-1.5 1.783-2 2.93-0.507 1.147-0.817 2.41-0.93 3.79zM188.28-2.17v0c0-0.573 0.01-1.143 0.03-1.71 0.013-0.573 0.027-1.2 0.04-1.88v0-18.82c0-0.46-0.047-0.92-0.14-1.38-0.1-0.467-0.15-0.953-0.15-1.46v0c0-0.86 0.31-1.517 0.93-1.97 0.62-0.46 1.457-0.69 2.51-0.69v0c0.46 0 0.86 0.077 1.2 0.23 0.34 0.16 0.623 0.36 0.85 0.6 0.233 0.247 0.407 0.523 0.52 0.83 0.113 0.313 0.17 0.63 0.17 0.95v0c0 0.28-0.02 0.563-0.06 0.85-0.04 0.28-0.087 0.56-0.14 0.84v0c2.493-0.62 4.613-1.183 6.36-1.69 1.753-0.5 3.127-0.913 4.12-1.24v0c0.207-0.373 0.503-0.697 0.89-0.97 0.38-0.267 0.88-0.4 1.5-0.4v0c0.893 0 1.607 0.233 2.14 0.7 0.527 0.46 0.79 1.04 0.79 1.74v0c0 0.28-0.017 0.567-0.05 0.86-0.033 0.293-0.05 0.587-0.05 0.88v0c-0.1 0.993-0.12 2-0.06 3.02 0.06 1.027 0.13 2.06 0.21 3.1v0c0.033 0.327 0.053 0.673 0.06 1.04 0.007 0.367 0.01 0.737 0.01 1.11v0c0 0.393-0.097 0.72-0.29 0.98-0.193 0.26-0.443 0.467-0.75 0.62-0.3 0.153-0.63 0.263-0.99 0.33-0.353 0.067-0.703 0.1-1.05 0.1v0c-0.487 0-0.893-0.087-1.22-0.26-0.32-0.167-0.583-0.387-0.79-0.66-0.2-0.267-0.347-0.567-0.44-0.9-0.087-0.333-0.13-0.663-0.13-0.99v0c0-0.747 0.007-1.507 0.02-2.28 0.02-0.773 0.037-1.623 0.05-2.55v0c-0.62 0.147-1.47 0.34-2.55 0.58-1.08 0.247-2.263 0.507-3.55 0.78v0c-0.733 0.18-1.46 0.35-2.18 0.51-0.713 0.153-1.437 0.31-2.17 0.47v0 15.94l0.73-0.22c0.327-0.113 0.637-0.213 0.93-0.3 0.293-0.093 0.627-0.153 1-0.18v0c0.313 0.027 0.62 0.1 0.92 0.22 0.3 0.113 0.567 0.273 0.8 0.48 0.24 0.213 0.433 0.48 0.58 0.8 0.147 0.313 0.22 0.673 0.22 1.08v0c0 0.38-0.063 0.74-0.19 1.08-0.12 0.34-0.287 0.643-0.5 0.91-0.207 0.273-0.453 0.493-0.74 0.66-0.287 0.173-0.6 0.267-0.94 0.28v0c-0.227 0.033-0.537 0.087-0.93 0.16-0.393 0.073-0.85 0.16-1.37 0.26v0c-0.827 0.16-1.497 0.273-2.01 0.34-0.513 0.067-0.94 0.1-1.28 0.1v0c-0.373 0-0.737-0.063-1.09-0.19-0.347-0.12-0.65-0.3-0.91-0.54-0.26-0.247-0.47-0.55-0.63-0.91-0.153-0.353-0.23-0.767-0.23-1.24z" fill="#0e5ddd" fill-rule="nonzero" stroke="none" stroke-width="1" stroke-linecap="butt" stroke-linejoin="miter" stroke-miterlimit="10" stroke-dasharray="" stroke-dashoffset="0" font-family="none" font-weight="none" font-size="none" text-anchor="none" style="mix-blend-mode: normal" data-fill-palette-color="primary" opacity="1"/><path transform="translate(0,84.29)" d="M5.59-2.86v0c0-0.747 0.033-1.477 0.1-2.19 0.067-0.72 0.1-1.56 0.1-2.52v0c0-4.327-0.013-8.663-0.04-13.01-0.027-4.347-0.103-8.74-0.23-13.18v0c-0.18-0.347-0.34-0.723-0.48-1.13-0.14-0.407-0.21-0.757-0.21-1.05v0c0-0.7 0.193-1.29 0.58-1.77 0.38-0.48 1.033-0.72 1.96-0.72v0c0.473 0 0.937 0.063 1.39 0.19 0.46 0.12 0.95 0.18 1.47 0.18v0c1.14 0 2.27-0.06 3.39-0.18 1.127-0.127 2.277-0.19 3.45-0.19v0c2.387 0 4.53 0.233 6.43 0.7 1.893 0.46 3.557 1.103 4.99 1.93 1.433 0.82 2.653 1.797 3.66 2.93 1.013 1.127 1.833 2.363 2.46 3.71 0.627 1.34 1.087 2.763 1.38 4.27 0.293 1.507 0.44 3.033 0.44 4.58v0c0 1.38-0.143 2.857-0.43 4.43-0.287 1.567-0.757 3.12-1.41 4.66-0.647 1.54-1.49 3.013-2.53 4.42-1.047 1.407-2.333 2.647-3.86 3.72-1.533 1.08-3.32 1.94-5.36 2.58-2.04 0.64-4.38 0.96-7.02 0.96v0c-0.62 0-1.233-0.027-1.84-0.08-0.613-0.06-1.23-0.127-1.85-0.2-0.613-0.073-1.233-0.137-1.86-0.19-0.627-0.06-1.267-0.09-1.92-0.09v0c-0.993 0-1.7-0.227-2.12-0.68-0.427-0.453-0.64-1.147-0.64-2.08zM10.89-32.76l0.15 27.39c0.34 0.1 0.75 0.177 1.23 0.23 0.48 0.06 0.963 0.107 1.45 0.14 0.487 0.027 0.947 0.047 1.38 0.06 0.433 0.007 0.77 0.01 1.01 0.01v0c2.02 0 3.787-0.253 5.3-0.76 1.513-0.507 2.813-1.167 3.9-1.98 1.08-0.813 1.977-1.73 2.69-2.75 0.72-1.027 1.287-2.063 1.7-3.11 0.413-1.04 0.703-2.04 0.87-3 0.16-0.96 0.24-1.78 0.24-2.46v0c0-2.707-0.32-4.957-0.96-6.75-0.647-1.8-1.593-3.237-2.84-4.31-1.24-1.08-2.77-1.837-4.59-2.27-1.813-0.44-3.9-0.66-6.26-0.66v0c-0.307 0-0.683 0.007-1.13 0.02-0.447 0.02-0.917 0.037-1.41 0.05-0.487 0.013-0.97 0.037-1.45 0.07-0.48 0.033-0.907 0.06-1.28 0.08zM48.54-11.01v0c0.307 1.22 0.763 2.24 1.37 3.06 0.613 0.827 1.303 1.49 2.07 1.99 0.767 0.507 1.577 0.87 2.43 1.09 0.853 0.22 1.687 0.33 2.5 0.33v0c1.267 0 2.397-0.11 3.39-0.33 0.993-0.22 1.843-0.49 2.55-0.81 0.713-0.313 1.29-0.643 1.73-0.99 0.433-0.34 0.74-0.64 0.92-0.9v0c0.167-0.24 0.35-0.47 0.55-0.69 0.207-0.22 0.427-0.417 0.66-0.59 0.24-0.173 0.477-0.307 0.71-0.4 0.233-0.1 0.457-0.15 0.67-0.15v0c0.813 0 1.443 0.24 1.89 0.72 0.447 0.48 0.67 1.127 0.67 1.94v0c0 0.313-0.113 0.703-0.34 1.17-0.227 0.473-0.65 0.997-1.27 1.57v0c-0.68 0.633-1.44 1.233-2.28 1.8-0.84 0.573-1.763 1.073-2.77 1.5-1.007 0.433-2.1 0.777-3.28 1.03-1.18 0.253-2.457 0.38-3.83 0.38v0c-1.607 0-3.077-0.217-4.41-0.65-1.34-0.433-2.537-1.02-3.59-1.76-1.06-0.74-1.98-1.597-2.76-2.57-0.78-0.98-1.43-2.023-1.95-3.13-0.527-1.107-0.92-2.247-1.18-3.42-0.26-1.167-0.39-2.303-0.39-3.41v0c0-2.413 0.39-4.59 1.17-6.53 0.787-1.947 1.863-3.613 3.23-5 1.367-1.38 2.987-2.447 4.86-3.2 1.867-0.747 3.89-1.12 6.07-1.12v0c1.567 0 3.033 0.233 4.4 0.7 1.367 0.46 2.583 1.11 3.65 1.95 1.067 0.84 1.96 1.84 2.68 3 0.727 1.167 1.237 2.45 1.53 3.85v0c0.327 0.273 0.567 0.637 0.72 1.09 0.153 0.447 0.23 0.89 0.23 1.33v0c0 0.727-0.247 1.323-0.74 1.79-0.5 0.467-1.123 0.787-1.87 0.96v0c-1.647 0.427-3.29 0.82-4.93 1.18-1.647 0.353-3.3 0.703-4.96 1.05-1.66 0.34-3.33 0.69-5.01 1.05-1.687 0.353-3.383 0.727-5.09 1.12zM48.12-15.53v0c2.767-0.647 5.567-1.257 8.4-1.83 2.833-0.567 5.713-1.2 8.64-1.9v0c-0.273-0.753-0.647-1.467-1.12-2.14-0.473-0.673-1.027-1.263-1.66-1.77-0.633-0.507-1.337-0.907-2.11-1.2-0.773-0.287-1.61-0.43-2.51-0.43v0c-1.38 0-2.637 0.223-3.77 0.67-1.133 0.447-2.113 1.073-2.94 1.88-0.833 0.807-1.5 1.783-2 2.93-0.507 1.147-0.817 2.41-0.93 3.79zM80.91-1.86l0.1-5.22-0.15-17.21-2.95 0.02c-0.38 0-0.707-0.077-0.98-0.23-0.28-0.153-0.513-0.363-0.7-0.63-0.187-0.273-0.327-0.58-0.42-0.92-0.1-0.34-0.15-0.697-0.15-1.07v0c0-0.64 0.077-1.127 0.23-1.46 0.153-0.333 0.377-0.577 0.67-0.73 0.293-0.153 0.653-0.243 1.08-0.27 0.42-0.02 0.907-0.03 1.46-0.03v0h1.73v-0.91c0-0.6-0.003-1.087-0.01-1.46-0.007-0.373-0.01-0.627-0.01-0.76v0c0-0.473-0.043-0.947-0.13-1.42-0.093-0.467-0.14-0.947-0.14-1.44v0c0-0.407 0.05-0.763 0.15-1.07 0.093-0.307 0.26-0.57 0.5-0.79 0.233-0.22 0.547-0.387 0.94-0.5 0.387-0.113 0.867-0.17 1.44-0.17v0c0.393 0 0.763 0.03 1.11 0.09 0.353 0.067 0.663 0.193 0.93 0.38 0.267 0.187 0.48 0.443 0.64 0.77 0.167 0.327 0.25 0.75 0.25 1.27v0c0 0.7-0.06 1.393-0.18 2.08-0.127 0.68-0.18 1.387-0.16 2.12v0 1.78c1.267-0.033 2.253-0.057 2.96-0.07 0.713-0.02 1.287-0.037 1.72-0.05v0c0.067 0 0.13-0.003 0.19-0.01 0.053-0.013 0.107-0.02 0.16-0.02v0c0.193-0.013 0.413-0.02 0.66-0.02 0.24 0 0.433 0 0.58 0v0c0.313 0 0.613 0.05 0.9 0.15 0.293 0.093 0.55 0.257 0.77 0.49 0.22 0.227 0.397 0.517 0.53 0.87 0.127 0.36 0.19 0.793 0.19 1.3v0c0 0.387-0.03 0.753-0.09 1.1-0.067 0.34-0.19 0.64-0.37 0.9-0.18 0.26-0.44 0.467-0.78 0.62-0.34 0.153-0.78 0.23-1.32 0.23v0c-0.507 0-1.017-0.027-1.53-0.08-0.507-0.06-1.03-0.097-1.57-0.11v0l-2.95 0.02 0.17 19.27c0.667-0.113 1.25-0.22 1.75-0.32 0.507-0.1 0.98-0.197 1.42-0.29 0.44-0.1 0.87-0.217 1.29-0.35 0.427-0.127 0.893-0.287 1.4-0.48v0c0.273-0.147 0.597-0.3 0.97-0.46 0.373-0.153 0.763-0.23 1.17-0.23v0c0.8 0 1.427 0.273 1.88 0.82 0.46 0.547 0.69 1.26 0.69 2.14v0c0 0.227-0.053 0.477-0.16 0.75-0.107 0.28-0.267 0.553-0.48 0.82-0.207 0.267-0.477 0.51-0.81 0.73-0.333 0.22-0.73 0.38-1.19 0.48v0c-0.487 0.1-1.047 0.223-1.68 0.37-0.64 0.147-1.307 0.3-2 0.46-0.7 0.16-1.4 0.323-2.1 0.49-0.7 0.16-1.36 0.303-1.98 0.43-0.62 0.12-1.167 0.22-1.64 0.3-0.473 0.08-0.83 0.113-1.07 0.1v0c-0.293 0-0.617-0.037-0.97-0.11-0.347-0.073-0.667-0.203-0.96-0.39-0.293-0.187-0.533-0.447-0.72-0.78-0.187-0.333-0.28-0.763-0.28-1.29zM107.18-11.01v0c0.307 1.22 0.767 2.24 1.38 3.06 0.607 0.827 1.293 1.49 2.06 1.99 0.767 0.507 1.577 0.87 2.43 1.09 0.853 0.22 1.687 0.33 2.5 0.33v0c1.273 0 2.407-0.11 3.4-0.33 0.987-0.22 1.837-0.49 2.55-0.81 0.707-0.313 1.28-0.643 1.72-0.99 0.44-0.34 0.75-0.64 0.93-0.9v0c0.16-0.24 0.34-0.47 0.54-0.69 0.207-0.22 0.427-0.417 0.66-0.59 0.24-0.173 0.477-0.307 0.71-0.4 0.24-0.1 0.463-0.15 0.67-0.15v0c0.813 0 1.447 0.24 1.9 0.72 0.447 0.48 0.67 1.127 0.67 1.94v0c0 0.313-0.113 0.703-0.34 1.17-0.233 0.473-0.657 0.997-1.27 1.57v0c-0.687 0.633-1.45 1.233-2.29 1.8-0.833 0.573-1.757 1.073-2.77 1.5-1.007 0.433-2.1 0.777-3.28 1.03-1.18 0.253-2.453 0.38-3.82 0.38v0c-1.613 0-3.087-0.217-4.42-0.65-1.333-0.433-2.53-1.02-3.59-1.76-1.06-0.74-1.98-1.597-2.76-2.57-0.78-0.98-1.43-2.023-1.95-3.13-0.52-1.107-0.91-2.247-1.17-3.42-0.26-1.167-0.39-2.303-0.39-3.41v0c0-2.413 0.39-4.59 1.17-6.53 0.78-1.947 1.853-3.613 3.22-5 1.367-1.38 2.987-2.447 4.86-3.2 1.873-0.747 3.9-1.12 6.08-1.12v0c1.56 0 3.023 0.233 4.39 0.7 1.367 0.46 2.583 1.11 3.65 1.95 1.067 0.84 1.963 1.84 2.69 3 0.72 1.167 1.227 2.45 1.52 3.85v0c0.327 0.273 0.567 0.637 0.72 1.09 0.16 0.447 0.24 0.89 0.24 1.33v0c0 0.727-0.25 1.323-0.75 1.79-0.493 0.467-1.117 0.787-1.87 0.96v0c-1.64 0.427-3.283 0.82-4.93 1.18-1.64 0.353-3.29 0.703-4.95 1.05-1.667 0.34-3.34 0.69-5.02 1.05-1.687 0.353-3.383 0.727-5.09 1.12zM106.76-15.53v0c2.767-0.647 5.567-1.257 8.4-1.83 2.833-0.567 5.713-1.2 8.64-1.9v0c-0.273-0.753-0.647-1.467-1.12-2.14-0.473-0.673-1.027-1.263-1.66-1.77-0.633-0.507-1.337-0.907-2.11-1.2-0.773-0.287-1.607-0.43-2.5-0.43v0c-1.387 0-2.647 0.223-3.78 0.67-1.127 0.447-2.107 1.073-2.94 1.88-0.827 0.807-1.493 1.783-2 2.93-0.507 1.147-0.817 2.41-0.93 3.79zM135.47-14.75v0c0-1.313 0.137-2.607 0.41-3.88 0.267-1.267 0.68-2.47 1.24-3.61 0.56-1.14 1.27-2.187 2.13-3.14 0.853-0.953 1.87-1.78 3.05-2.48 1.18-0.7 2.523-1.243 4.03-1.63 1.5-0.393 3.187-0.59 5.06-0.59v0c1.173 0 2.263 0.13 3.27 0.39 1.013 0.26 1.86 0.61 2.54 1.05v0c0.08-0.487 0.223-0.883 0.43-1.19 0.2-0.313 0.437-0.553 0.71-0.72 0.267-0.173 0.553-0.293 0.86-0.36 0.313-0.067 0.617-0.1 0.91-0.1v0c0.78 0 1.39 0.213 1.83 0.64 0.44 0.42 0.66 0.973 0.66 1.66v0c0 0.36-0.027 0.723-0.08 1.09-0.047 0.36-0.07 0.753-0.07 1.18v0c0 0.747 0.083 1.48 0.25 2.2 0.16 0.713 0.24 1.437 0.24 2.17v0c0 0.78-0.203 1.443-0.61 1.99-0.407 0.547-1.033 0.82-1.88 0.82v0c-0.44 0-0.803-0.053-1.09-0.16-0.28-0.107-0.523-0.253-0.73-0.44-0.2-0.187-0.373-0.407-0.52-0.66-0.147-0.253-0.293-0.527-0.44-0.82v0c-0.2-0.387-0.433-0.79-0.7-1.21-0.267-0.413-0.653-0.787-1.16-1.12-0.507-0.333-1.173-0.607-2-0.82-0.833-0.207-1.907-0.31-3.22-0.31v0c-1.547 0-2.903 0.287-4.07 0.86-1.16 0.58-2.127 1.35-2.9 2.31-0.773 0.96-1.357 2.067-1.75 3.32-0.393 1.253-0.59 2.557-0.59 3.91v0c0 1.04 0.18 2.137 0.54 3.29 0.36 1.153 0.927 2.22 1.7 3.2 0.773 0.973 1.757 1.78 2.95 2.42 1.2 0.633 2.63 0.95 4.29 0.95v0c0.613 0 1.263-0.073 1.95-0.22 0.687-0.147 1.363-0.367 2.03-0.66 0.667-0.293 1.3-0.657 1.9-1.09 0.6-0.427 1.12-0.927 1.56-1.5v0c0.28-0.34 0.65-0.657 1.11-0.95 0.467-0.293 0.943-0.423 1.43-0.39v0c0.487 0.033 0.893 0.133 1.22 0.3 0.327 0.173 0.587 0.387 0.78 0.64 0.2 0.253 0.33 0.53 0.39 0.83 0.067 0.3 0.093 0.59 0.08 0.87v0c-0.053 0.7-0.25 1.337-0.59 1.91-0.34 0.58-0.713 1.097-1.12 1.55v0c-0.747 0.753-1.57 1.38-2.47 1.88-0.893 0.507-1.82 0.913-2.78 1.22-0.96 0.313-1.93 0.533-2.91 0.66-0.973 0.133-1.917 0.2-2.83 0.2v0c-2.193 0-4.213-0.41-6.06-1.23-1.853-0.827-3.44-1.94-4.76-3.34-1.327-1.4-2.363-3.04-3.11-4.92-0.74-1.88-1.11-3.87-1.11-5.97zM173.36-1.86l0.1-5.22-0.14-17.21-2.96 0.02c-0.373 0-0.7-0.077-0.98-0.23-0.273-0.153-0.503-0.363-0.69-0.63-0.187-0.273-0.33-0.58-0.43-0.92-0.093-0.34-0.14-0.697-0.14-1.07v0c0-0.64 0.077-1.127 0.23-1.46 0.153-0.333 0.377-0.577 0.67-0.73 0.293-0.153 0.65-0.243 1.07-0.27 0.427-0.02 0.917-0.03 1.47-0.03v0h1.73v-0.91c0-0.6-0.003-1.087-0.01-1.46-0.007-0.373-0.01-0.627-0.01-0.76v0c0-0.473-0.047-0.947-0.14-1.42-0.087-0.467-0.13-0.947-0.13-1.44v0c0-0.407 0.047-0.763 0.14-1.07 0.1-0.307 0.27-0.57 0.51-0.79 0.233-0.22 0.543-0.387 0.93-0.5 0.393-0.113 0.877-0.17 1.45-0.17v0c0.387 0 0.757 0.03 1.11 0.09 0.347 0.067 0.653 0.193 0.92 0.38 0.273 0.187 0.49 0.443 0.65 0.77 0.167 0.327 0.25 0.75 0.25 1.27v0c0 0.7-0.063 1.393-0.19 2.08-0.12 0.68-0.173 1.387-0.16 2.12v0 1.78c1.273-0.033 2.263-0.057 2.97-0.07 0.707-0.02 1.28-0.037 1.72-0.05v0c0.067 0 0.127-0.003 0.18-0.01 0.06-0.013 0.113-0.02 0.16-0.02v0c0.2-0.013 0.42-0.02 0.66-0.02 0.247 0 0.443 0 0.59 0v0c0.307 0 0.607 0.05 0.9 0.15 0.293 0.093 0.55 0.257 0.77 0.49 0.22 0.227 0.393 0.517 0.52 0.87 0.133 0.36 0.2 0.793 0.2 1.3v0c0 0.387-0.033 0.753-0.1 1.1-0.067 0.34-0.187 0.64-0.36 0.9-0.18 0.26-0.44 0.467-0.78 0.62-0.347 0.153-0.787 0.23-1.32 0.23v0c-0.507 0-1.017-0.027-1.53-0.08-0.513-0.06-1.037-0.097-1.57-0.11v0l-2.96 0.02 0.17 19.27c0.667-0.113 1.253-0.22 1.76-0.32 0.507-0.1 0.98-0.197 1.42-0.29 0.44-0.1 0.87-0.217 1.29-0.35 0.427-0.127 0.89-0.287 1.39-0.48v0c0.28-0.147 0.607-0.3 0.98-0.46 0.373-0.153 0.763-0.23 1.17-0.23v0c0.8 0 1.427 0.273 1.88 0.82 0.453 0.547 0.68 1.26 0.68 2.14v0c0 0.227-0.05 0.477-0.15 0.75-0.107 0.28-0.267 0.553-0.48 0.82-0.213 0.267-0.487 0.51-0.82 0.73-0.333 0.22-0.727 0.38-1.18 0.48v0c-0.487 0.1-1.05 0.223-1.69 0.37-0.633 0.147-1.3 0.3-2 0.46-0.7 0.16-1.4 0.323-2.1 0.49-0.7 0.16-1.36 0.303-1.98 0.43-0.613 0.12-1.157 0.22-1.63 0.3-0.473 0.08-0.833 0.113-1.08 0.1v0c-0.293 0-0.613-0.037-0.96-0.11-0.353-0.073-0.673-0.203-0.96-0.39-0.293-0.187-0.533-0.447-0.72-0.78-0.193-0.333-0.29-0.763-0.29-1.29zM193.58-14.72v0c0-2.12 0.393-4.11 1.18-5.97 0.793-1.867 1.877-3.493 3.25-4.88 1.373-1.393 2.98-2.493 4.82-3.3 1.84-0.807 3.81-1.21 5.91-1.21v0c2.293 0 4.373 0.403 6.24 1.21 1.86 0.807 3.453 1.907 4.78 3.3 1.327 1.387 2.35 3.013 3.07 4.88 0.713 1.86 1.07 3.85 1.07 5.97v0c0 1.547-0.183 3.003-0.55 4.37-0.367 1.367-0.883 2.62-1.55 3.76-0.667 1.14-1.467 2.16-2.4 3.06-0.94 0.907-1.97 1.673-3.09 2.3-1.127 0.627-2.327 1.107-3.6 1.44-1.28 0.333-2.603 0.5-3.97 0.5v0c-2.053 0-3.997-0.37-5.83-1.11-1.84-0.74-3.453-1.783-4.84-3.13-1.38-1.34-2.473-2.96-3.28-4.86-0.807-1.893-1.21-4.003-1.21-6.33zM199.22-14.72v0c0 1.547 0.22 2.947 0.66 4.2 0.44 1.253 1.07 2.323 1.89 3.21 0.82 0.887 1.817 1.57 2.99 2.05 1.173 0.48 2.493 0.72 3.96 0.72v0c1.3 0 2.527-0.22 3.68-0.66 1.16-0.44 2.173-1.087 3.04-1.94 0.873-0.853 1.567-1.917 2.08-3.19 0.513-1.267 0.77-2.73 0.77-4.39v0c0-1.367-0.217-2.667-0.65-3.9-0.433-1.227-1.057-2.297-1.87-3.21-0.813-0.907-1.813-1.63-3-2.17-1.187-0.533-2.537-0.8-4.05-0.8v0c-1.513 0-2.857 0.267-4.03 0.8-1.173 0.54-2.167 1.263-2.98 2.17-0.813 0.913-1.433 1.983-1.86 3.21-0.42 1.233-0.63 2.533-0.63 3.9zM231.79-2.17v0c0-0.573 0.007-1.143 0.02-1.71 0.02-0.573 0.037-1.2 0.05-1.88v0-18.82c0-0.46-0.05-0.92-0.15-1.38-0.093-0.467-0.14-0.953-0.14-1.46v0c0-0.86 0.31-1.517 0.93-1.97 0.613-0.46 1.45-0.69 2.51-0.69v0c0.453 0 0.853 0.077 1.2 0.23 0.34 0.16 0.623 0.36 0.85 0.6 0.227 0.247 0.397 0.523 0.51 0.83 0.113 0.313 0.17 0.63 0.17 0.95v0c0 0.28-0.02 0.563-0.06 0.85-0.04 0.28-0.083 0.56-0.13 0.84v0c2.487-0.62 4.607-1.183 6.36-1.69 1.747-0.5 3.117-0.913 4.11-1.24v0c0.213-0.373 0.51-0.697 0.89-0.97 0.387-0.267 0.89-0.4 1.51-0.4v0c0.893 0 1.603 0.233 2.13 0.7 0.527 0.46 0.79 1.04 0.79 1.74v0c0 0.28-0.013 0.567-0.04 0.86-0.033 0.293-0.05 0.587-0.05 0.88v0c-0.1 0.993-0.12 2-0.06 3.02 0.053 1.027 0.12 2.06 0.2 3.1v0c0.033 0.327 0.053 0.673 0.06 1.04 0.013 0.367 0.02 0.737 0.02 1.11v0c0 0.393-0.1 0.72-0.3 0.98-0.193 0.26-0.44 0.467-0.74 0.62-0.3 0.153-0.63 0.263-0.99 0.33-0.36 0.067-0.71 0.1-1.05 0.1v0c-0.487 0-0.893-0.087-1.22-0.26-0.327-0.167-0.59-0.387-0.79-0.66-0.207-0.267-0.353-0.567-0.44-0.9-0.093-0.333-0.14-0.663-0.14-0.99v0c0-0.747 0.01-1.507 0.03-2.28 0.013-0.773 0.03-1.623 0.05-2.55v0c-0.62 0.147-1.473 0.34-2.56 0.58-1.08 0.247-2.263 0.507-3.55 0.78v0c-0.733 0.18-1.457 0.35-2.17 0.51-0.713 0.153-1.437 0.31-2.17 0.47v0 15.94l0.73-0.22c0.327-0.113 0.637-0.213 0.93-0.3 0.293-0.093 0.627-0.153 1-0.18v0c0.307 0.027 0.61 0.1 0.91 0.22 0.307 0.113 0.577 0.273 0.81 0.48 0.233 0.213 0.423 0.48 0.57 0.8 0.147 0.313 0.22 0.673 0.22 1.08v0c0 0.38-0.06 0.74-0.18 1.08-0.12 0.34-0.287 0.643-0.5 0.91-0.213 0.273-0.463 0.493-0.75 0.66-0.28 0.173-0.593 0.267-0.94 0.28v0c-0.227 0.033-0.533 0.087-0.92 0.16-0.393 0.073-0.85 0.16-1.37 0.26v0c-0.833 0.16-1.503 0.273-2.01 0.34-0.513 0.067-0.943 0.1-1.29 0.1v0c-0.373 0-0.733-0.063-1.08-0.19-0.353-0.12-0.66-0.3-0.92-0.54-0.26-0.247-0.467-0.55-0.62-0.91-0.153-0.353-0.23-0.767-0.23-1.24z" fill="#0e5ddd" fill-rule="nonzero" stroke="none" stroke-width="1" stroke-linecap="butt" stroke-linejoin="miter" stroke-miterlimit="10" stroke-dasharray="" stroke-dashoffset="0" font-family="none" font-weight="none" font-size="none" text-anchor="none" style="mix-blend-mode: normal" data-fill-palette-color="primary" opacity="1"/></g></svg></g></svg></g></svg></g></svg></g><g transform="matrix(1,0,0,1,0,0.4999999999999858)"><svg viewBox="0 0 235.9179487179487 200" height="200" width="235.9179487179487"><g><svg xmlns:dc="http://purl.org/dc/elements/1.1/" xmlns:cc="http://creativecommons.org/ns#" xmlns:rdf="http://www.w3.org/1999/02/22-rdf-syntax-ns#" xmlns:svg="http://www.w3.org/2000/svg" xmlns="http://www.w3.org/2000/svg" xmlns:sodipodi="http://sodipodi.sourceforge.net/DTD/sodipodi-0.dtd" xmlns:inkscape="http://www.inkscape.org/namespaces/inkscape" version="1.1" x="0" y="0" viewBox="0 21.889 287.525 243.75" style="enable-background:new 0 0 287.525 287.525;" xml:space="preserve" id="icon-0" width="235.9179487179487" height="200" class="icon-icon-0" data-fill-palette-color="accent"><path d="M142.93 21.889A7.5 7.5 0 0 0 135.43 29.389V46.389A7.5 7.5 0 0 0 142.93 53.889C147.073 53.889 150.43 50.532 150.43 46.389V29.389C150.43 25.246 147.073 21.889 142.93 21.889M179.086 38.984A7.47 7.47 0 0 0 173.786 41.184L161.765 53.204A7.5 7.5 0 0 0 161.768 63.81 7.47 7.47 0 0 0 167.068 66.008 7.47 7.47 0 0 0 172.371 63.81L184.393 51.789A7.5 7.5 0 0 0 184.39 41.182 7.48 7.48 0 0 0 179.086 38.984M107.27 38.986A7.47 7.47 0 0 0 101.97 41.184 7.5 7.5 0 0 0 101.969 51.789L113.986 63.811A7.48 7.48 0 0 0 119.291 66.008 7.48 7.48 0 0 0 124.594 63.81 7.5 7.5 0 0 0 124.596 53.205L112.574 41.184A7.47 7.47 0 0 0 107.271 38.986M49.264 80.64C35.479 80.639 23.43 91.104 23.43 104.889V226.627C23.43 226.625 24.017 226.639 24.145 226.639H262.43V104.889C262.43 91.104 252.049 80.639 238.264 80.639zM143.764 114.092C187.762 114.092 206.657 148.384 207.44 149.844A7.5 7.5 0 0 1 207.447 156.922C206.667 158.382 187.84 192.684 143.764 192.684S80.857 158.382 80.076 156.922A7.5 7.5 0 0 1 80.082 149.844C80.865 148.384 99.765 114.092 143.764 114.092M143.729 128.199C129.839 128.2 118.54 139.498 118.54 153.387S129.841 178.574 143.729 178.574 168.918 167.274 168.918 153.387C168.918 139.497 157.618 128.199 143.728 128.199M143.729 143.2C149.346 143.2 153.918 147.77 153.918 153.387S149.347 163.574 143.728 163.574C138.112 163.574 133.542 159.004 133.542 153.387S138.111 143.199 143.729 143.199M24.145 241.64C12.394 241.639 2.39 253.639 0 265.639H287.525C285.15 253.639 275.208 241.639 263.46 241.639z" fill="#f98f7c" data-fill-palette-color="accent"/></svg></g></svg></g></svg></g><defs/></svg><rect width="395.52" height="119.7179419067201" fill="none" stroke="none" visibility="hidden"/></g></svg>